<svg xmlns="http://www.w3.org/2000/svg" version="1.1" xmlns:xlink="http://www.w3.org/1999/xlink" xmlns:svgjs="http://svgjs.com/svgjs" width="1000" height="1000"><rect width="1000" height="1000" rx="150" ry="150" fill="#555555"></rect><g transform="matrix(1.171875,0,0,1.171875,199.9252347946167,199.39671969413757)"><svg xmlns="http://www.w3.org/2000/svg" version="1.1" xmlns:xlink="http://www.w3.org/1999/xlink" xmlns:svgjs="http://svgjs.com/svgjs" width="512" height="512"><svg id="Calque_1" xmlns="http://www.w3.org/2000/svg" xmlns:xlink="http://www.w3.org/1999/xlink" viewBox="0 0 512 512">
    <defs>
        <style>.cls-1{clip-path:url(#clippath);}.cls-2{fill:none;}.cls-3{fill:#f0e9df;}</style>
        <clipPath id="clippath">
            <rect class="cls-2" x="-2" y="72.36" width="515" height="374.29"></rect>
        </clipPath>
    </defs>
    <g class="cls-1">
        <path class="cls-3" d="M340.51,98.25h-47.5c-.72,0-1.3,.58-1.3,1.3v15.35c0,.72,.58,1.3,1.3,1.3h47.5c89.27,0,148.26,62.82,148.26,154.45,0,92.1-54.04,154.45-143.31,154.45h-94.36c-.72,0-1.3-.58-1.3-1.3V223.85s0-20.36,0-20.36c0-.72-.58-1.3-1.3-1.3h-11.08c-.72,0-1.3,.58-1.3,1.3v238.25c0,.72,.58,1.3,1.3,1.3h108.04c97.3,0,162.68-67.07,162.68-172.4,0-104.86-70.33-172.4-167.63-172.4Z"></path>
        <path class="cls-3" d="M172.36,420.77h47.5c.72,0,1.3-.58,1.3-1.3v-15.35c0-.72-.58-1.3-1.3-1.3h-47.5c-89.27,0-148.26-62.82-148.26-154.45,0-92.1,54.04-154.45,143.31-154.45h94.36c.72,0,1.3,.58,1.3,1.3v199.94s0,20.36,0,20.36c0,.72,.58,1.3,1.3,1.3h11.08c.72,0,1.3-.58,1.3-1.3V77.28c0-.72-.58-1.3-1.3-1.3h-108.04c-97.3,0-162.68,67.07-162.68,172.4,0,104.86,70.33,172.4,167.63,172.4Z"></path>
    </g>
</svg></svg></g></svg>